# xmcd
#
# Track frame offsets:
#	150
#	11824
#	27574
#	41474
#	56028
#	67107
#	82324
#	96695
#	113795
#	126729
#	146540
#
# Disc length: 2017 seconds
#
# Revision: 1
# Processed by: cddbd v1.5.2PL0 Copyright (c) Steve Scherf et al.
# Submitted via: audiograbber 1.83.01
#
DISCID=af07df0b
DTITLE=Riverside - No.2.
DYEAR=2007
DGENRE=Country
TTITLE0=Rózsahegyi Péter - Chattahoochee
TTITLE1=Moldován László - American Honky Tonk Bar
TTITLE2=Mihály Csaba - Guitars, Cadillacs
TTITLE3=Moldován László - Summertime Blues
TTITLE4=Mihály Csaba - King of the Road
TTITLE5=Nagy Péter - Acky Breaky Heart
TTITLE6=Country Roads - Country Roads
TTITLE7=Pintér Anita - Who's Bed Have Your Boots Been Under
TTITLE8=Mihály Csaba - Budapesttõl Miskolcig
TTITLE9=Nagy Péter - A ma a tiéd
TTITLE10=Nagy Péter - Foggy Mountain - Instrumental
EXTD=Szeged, Hungary
EXTT0=
EXTT1=
EXTT2=
EXTT3=
EXTT4=
EXTT5=
EXTT6=
EXTT7=
EXTT8=
EXTT9=
EXTT10=
PLAYORDER=
